<svg width="48" height="48" viewBox="0 0 48 48" fill="none" xmlns="http://www.w3.org/2000/svg">
<g filter="url(#filter0_d_1_45)">
<path fill-rule="evenodd" clip-rule="evenodd" d="M21.923 19.6892C22.0702 19.4556 22.2651 19.2446 22.4917 19.0632C22.8297 18.7925 23.238 18.5876 23.6628 18.4712C24.0208 18.373 24.3906 18.3378 24.7398 18.3791C24.8092 18.3873 24.8778 18.3985 24.9453 18.4128L26.533 18.7503L30.3208 19.5554C33.5621 20.2444 34.7578 23.0758 32.9915 25.8795L32.1943 27.1449C30.4281 29.9486 26.3686 31.663 23.1273 30.974L21.2958 30.5847L17.5662 36.5049C16.9775 37.4395 15.6243 38.0109 14.5439 37.7813L12.9562 37.4438C11.8758 37.2142 11.4772 36.2704 12.066 35.3358L16.8616 27.7234L21.923 19.6892ZM25.7202 22.3537C25.18 22.2389 24.5034 22.5246 24.209 22.9919L22.2778 26.0574C21.9834 26.5247 22.1827 26.9966 22.7229 27.1114L26.2669 27.8647C26.8071 27.9795 27.4837 27.6938 27.778 27.2265L29.7093 24.161C30.0036 23.6937 29.8044 23.2218 29.2641 23.107L25.7202 22.3537Z" fill="url(#paint0_linear_1_45)" fill-opacity="0.2" shape-rendering="crispEdges"/>
</g>
<g filter="url(#filter1_d_1_45)">
<path fill-rule="evenodd" clip-rule="evenodd" d="M21.923 15.1907C22.0702 14.9571 22.2651 14.7461 22.4917 14.5647C22.8297 14.294 23.238 14.0891 23.6628 13.9727C24.0208 13.8746 24.3906 13.8393 24.7398 13.8806C24.8092 13.8888 24.8778 13.9 24.9453 13.9144L26.533 14.2518L30.3208 15.0569C33.5621 15.7459 34.7578 18.5773 32.9915 21.381L32.1943 22.6464C30.4281 25.4501 26.3686 27.1645 23.1273 26.4755L21.2958 26.0862L17.5662 32.0064C16.9775 32.941 15.6243 33.5125 14.5439 33.2828L12.9562 32.9453C11.8758 32.7157 11.4772 31.7719 12.066 30.8373L16.8616 23.2249L21.923 15.1907ZM25.7202 17.8552C25.18 17.7404 24.5034 18.0261 24.209 18.4934L22.2778 21.5589C21.9834 22.0262 22.1827 22.4981 22.7229 22.6129L26.2669 23.3662C26.8071 23.4811 27.4837 23.1953 27.778 22.728L29.7093 19.6625C30.0036 19.1952 29.8044 18.7233 29.2641 18.6085L25.7202 17.8552Z" fill="url(#paint1_linear_1_45)" fill-opacity="0.6" shape-rendering="crispEdges"/>
</g>
<g filter="url(#filter2_d_1_45)">
<path fill-rule="evenodd" clip-rule="evenodd" d="M21.923 10.6922C22.0702 10.4586 22.2651 10.2476 22.4917 10.0662C22.8297 9.7955 23.238 9.59057 23.6628 9.47416C24.0208 9.37602 24.3906 9.34078 24.7398 9.38204C24.8092 9.39025 24.8778 9.40147 24.9453 9.41582L26.533 9.75329L30.3208 10.5584C33.5621 11.2474 34.7578 14.0788 32.9915 16.8825L32.1943 18.1479C30.4281 20.9516 26.3686 22.666 23.1273 21.977L21.2958 21.5877L17.5662 27.5079C16.9775 28.4425 15.6243 29.0139 14.5439 28.7843L12.9562 28.4468C11.8758 28.2171 11.4772 27.2733 12.066 26.3388L16.8616 18.7264L21.923 10.6922ZM25.7202 13.3567C25.18 13.2418 24.5034 13.5276 24.209 13.9948L22.2778 17.0604C21.9834 17.5277 22.1827 17.9996 22.7229 18.1144L26.2669 18.8677C26.8071 18.9825 27.4837 18.6968 27.778 18.2295L29.7093 15.164C30.0036 14.6967 29.8044 14.2248 29.2641 14.11L25.7202 13.3567Z" fill="url(#paint2_linear_1_45)"/>
</g>
<defs>
<filter id="filter0_d_1_45" x="7.79395" y="18.3621" width="30.0137" height="27.47" filterUnits="userSpaceOnUse" color-interpolation-filters="sRGB">
<feFlood flood-opacity="0" result="BackgroundImageFix"/>
<feColorMatrix in="SourceAlpha" type="matrix" values="0 0 0 0 0 0 0 0 0 0 0 0 0 0 0 0 0 0 127 0" result="hardAlpha"/>
<feOffset dy="4"/>
<feGaussianBlur stdDeviation="2"/>
<feComposite in2="hardAlpha" operator="out"/>
<feColorMatrix type="matrix" values="0 0 0 0 0 0 0 0 0 0 0 0 0 0 0 0 0 0 0.25 0"/>
<feBlend mode="normal" in2="BackgroundImageFix" result="effect1_dropShadow_1_45"/>
<feBlend mode="normal" in="SourceGraphic" in2="effect1_dropShadow_1_45" result="shape"/>
</filter>
<filter id="filter1_d_1_45" x="7.79395" y="13.8636" width="30.0137" height="27.47" filterUnits="userSpaceOnUse" color-interpolation-filters="sRGB">
<feFlood flood-opacity="0" result="BackgroundImageFix"/>
<feColorMatrix in="SourceAlpha" type="matrix" values="0 0 0 0 0 0 0 0 0 0 0 0 0 0 0 0 0 0 127 0" result="hardAlpha"/>
<feOffset dy="4"/>
<feGaussianBlur stdDeviation="2"/>
<feComposite in2="hardAlpha" operator="out"/>
<feColorMatrix type="matrix" values="0 0 0 0 0 0 0 0 0 0 0 0 0 0 0 0 0 0 0.25 0"/>
<feBlend mode="normal" in2="BackgroundImageFix" result="effect1_dropShadow_1_45"/>
<feBlend mode="normal" in="SourceGraphic" in2="effect1_dropShadow_1_45" result="shape"/>
</filter>
<filter id="filter2_d_1_45" x="7.79395" y="9.36505" width="30.0137" height="27.47" filterUnits="userSpaceOnUse" color-interpolation-filters="sRGB">
<feFlood flood-opacity="0" result="BackgroundImageFix"/>
<feColorMatrix in="SourceAlpha" type="matrix" values="0 0 0 0 0 0 0 0 0 0 0 0 0 0 0 0 0 0 127 0" result="hardAlpha"/>
<feOffset dy="4"/>
<feGaussianBlur stdDeviation="2"/>
<feComposite in2="hardAlpha" operator="out"/>
<feColorMatrix type="matrix" values="0 0 0 0 0 0 0 0 0 0 0 0 0 0 0 0 0 0 0.25 0"/>
<feBlend mode="normal" in2="BackgroundImageFix" result="effect1_dropShadow_1_45"/>
<feBlend mode="normal" in="SourceGraphic" in2="effect1_dropShadow_1_45" result="shape"/>
</filter>
<linearGradient id="paint0_linear_1_45" x1="29.5893" y1="19.4" x2="25.2008" y2="40.0465" gradientUnits="userSpaceOnUse">
<stop stop-color="#F9A13D"/>
<stop offset="1" stop-color="#FED787"/>
</linearGradient>
<linearGradient id="paint1_linear_1_45" x1="29.5893" y1="14.9015" x2="25.2008" y2="35.548" gradientUnits="userSpaceOnUse">
<stop stop-color="#F9A13D"/>
<stop offset="1" stop-color="#FED787"/>
</linearGradient>
<linearGradient id="paint2_linear_1_45" x1="29.5893" y1="10.4029" x2="25.2008" y2="31.0495" gradientUnits="userSpaceOnUse">
<stop stop-color="#F9A13D"/>
<stop offset="1" stop-color="#FED787"/>
</linearGradient>
</defs>
</svg>
